# xmcd CD database file
#
# Track frame offsets:
#	150
#	13397
#	29305
#	53572
#	71352
#	86487
#	102910
#	118597
#	134472
#	150585
#	175307
#	188757
#	215545
#	244687
#	259875
#	272480
#	290692
#	306357
#	326992
#
# Disc length: 4566 seconds
#
# Revision: 0
# Processed by: cddbd v1.5.1PL0 Copyright (c) Steve Scherf et al.
# Submitted via: CDex 1.60beta1
#
DISCID=1711d413
DTITLE=O.P. Nayyar - The Genius Of
DYEAR=0
DGENRE=Blues
TTITLE0=Babuji Dhire Chalna
TTITLE1=Thandi Hawa
TTITLE2=Mrei Neendon Mein
TTITLE3=Aankhon Hi Aankhon Mein
TTITLE4=Jawaniyan Ye Mast Mast
TTITLE5=Maang Ke Saath Tumhara
TTITLE6=Pyar Par Bas To Nahin
TTITLE7=Kaisa Jaadoo Balam Tune
TTITLE8=Chun Chun Ghungroo Bole
TTITLE9=Bahut Shukriya Badi Meharbani
TTITLE10=Anchal Mein Saja Lena
TTITLE11=Diwana Hua Badal
TTITLE12=Jaiye Aap Kahan Jayenge
TTITLE13=Aap Ke Haseen Rukh Pe
TTITLE14=Raaton Ko Chori Chori
TTITLE15=Meri Jaan Tumpe Sadke
TTITLE16=Ye Wohi Jagah Hai
TTITLE17=Dil Ki Awaaz
TTITLE18=Chain Se Humko Kabhi
EXTD=YEAR: 0
EXTT0=
EXTT1=
EXTT2=
EXTT3=
EXTT4=
EXTT5=
EXTT6=
EXTT7=
EXTT8=
EXTT9=
EXTT10=
EXTT11=
EXTT12=
EXTT13=
EXTT14=
EXTT15=
EXTT16=
EXTT17=
EXTT18=
PLAYORDER=
